<?xml version="1.0" encoding="UTF-8"?><svg id="Calque_1" xmlns="http://www.w3.org/2000/svg" xmlns:xlink="http://www.w3.org/1999/xlink" viewBox="0 0 200 200"><defs><style>.cls-1{fill:#ffe443;}.cls-2{fill:#f4a70f;}.cls-3{fill:url(#Dégradé_sans_nom_5);}.cls-4{opacity:.25;}</style><radialGradient id="Dégradé_sans_nom_5" cx="100" cy="100" fx="100" fy="100" r="75" gradientUnits="userSpaceOnUse"><stop offset=".79" stop-color="#ffe443"/><stop offset="1" stop-color="#fff" stop-opacity="0"/></radialGradient></defs><g class="cls-4"><path class="cls-2" d="M100,40c33.14,0,60,26.86,60,60s-26.86,60-60,60-60-26.86-60-60,26.86-60,60-60m0-.25c-33.22,0-60.25,27.03-60.25,60.25s27.03,60.25,60.25,60.25,60.25-27.03,60.25-60.25-27.03-60.25-60.25-60.25h0Z"/></g><g><circle class="cls-1" cx="100" cy="100" r="60"/><path class="cls-3" d="M100,40c33.14,0,60,26.86,60,60s-26.86,60-60,60-60-26.86-60-60,26.86-60,60-60m0-15c-41.36,0-75,33.64-75,75s33.64,75,75,75,75-33.64,75-75S141.36,25,100,25h0Z"/></g></svg>